<svg width="18" height="19" viewBox="0 0 18 19" fill="none" xmlns="http://www.w3.org/2000/svg">
<rect width="18" height="19" fill="#1E1E1E"/>
<path d="M-829 -3120C-829 -3121.1 -828.105 -3122 -827 -3122H2469C2470.1 -3122 2471 -3121.1 2471 -3120V459C2471 460.104 2470.1 461 2469 461H-827C-828.105 461 -829 460.104 -829 459V-3120Z" fill="#404040"/>
<path d="M-827 -3121H2469V-3123H-827V-3121ZM2470 -3120V459H2472V-3120H2470ZM2469 460H-827V462H2469V460ZM-828 459V-3120H-830V459H-828ZM-827 460C-827.552 460 -828 459.552 -828 459H-830C-830 460.657 -828.657 462 -827 462V460ZM2470 459C2470 459.552 2469.55 460 2469 460V462C2470.66 462 2472 460.657 2472 459H2470ZM2469 -3121C2469.55 -3121 2470 -3120.55 2470 -3120H2472C2472 -3121.66 2470.66 -3123 2469 -3123V-3121ZM-827 -3123C-828.657 -3123 -830 -3121.66 -830 -3120H-828C-828 -3120.55 -827.552 -3121 -827 -3121V-3123Z" fill="black" fill-opacity="0.1"/>
<rect width="1440" height="960" transform="translate(-651 -704)" fill="black"/>
<rect width="1440" height="960" transform="translate(-651 -704)" fill="url(#paint0_radial_0_1)" fill-opacity="0.2"/>
<g clip-path="url(#clip0_0_1)">
<rect x="-522" y="-684" width="1293" height="920" rx="8" fill="#141414"/>
<g filter="url(#filter0_f_0_1)">
<circle cx="113" cy="516" r="401" fill="#F370F8" fill-opacity="0.3"/>
</g>
<rect x="-71" y="-13.5" width="231" height="47" rx="7.5" stroke="#3A3A3A"/>
<g clip-path="url(#clip1_0_1)">
<path d="M6.90571 0.306641L5.50336 4.58201C5.43159 4.80082 5.30958 4.99967 5.14715 5.16255C4.98472 5.32543 4.78642 5.44778 4.56821 5.51975L0.304688 6.926L4.56821 8.33224C4.78642 8.40421 4.98472 8.52656 5.14715 8.68944C5.30958 8.85232 5.43159 9.05117 5.50336 9.26998L6.90571 13.5454L8.30805 9.26998C8.37982 9.05117 8.50184 8.85232 8.66426 8.68944C8.82669 8.52656 9.02499 8.40421 9.2432 8.33224L13.5067 6.926L9.2432 5.51975C9.02499 5.44778 8.82669 5.32543 8.66426 5.16255C8.50184 4.99967 8.37982 4.80082 8.30805 4.58201L6.90571 0.306641Z" fill="#FAF9F6"/>
<path d="M13.5066 10.603L12.6496 13.2158C12.6058 13.3495 12.5312 13.471 12.4319 13.5705C12.3327 13.6701 12.2115 13.7448 12.0781 13.7888L9.47266 14.6482L12.0781 15.5076C12.2115 15.5515 12.3327 15.6263 12.4319 15.7258C12.5312 15.8254 12.6058 15.9469 12.6496 16.0806L13.5066 18.6934L14.3636 16.0806C14.4075 15.9469 14.482 15.8254 14.5813 15.7258C14.6805 15.6263 14.8017 15.5515 14.9351 15.5076L17.5406 14.6482L14.9351 13.7888C14.8017 13.7448 14.6805 13.6701 14.5813 13.5705C14.482 13.471 14.4075 13.3495 14.3636 13.2158L13.5066 10.603Z" fill="#FAF9F6"/>
</g>
</g>
<rect x="-522.5" y="-684.5" width="1294" height="921" rx="8.5" stroke="white" stroke-opacity="0.2"/>
<defs>
<filter id="filter0_f_0_1" x="-1258" y="-855" width="2742" height="2742" filterUnits="userSpaceOnUse" color-interpolation-filters="sRGB">
<feFlood flood-opacity="0" result="BackgroundImageFix"/>
<feBlend mode="normal" in="SourceGraphic" in2="BackgroundImageFix" result="shape"/>
<feGaussianBlur stdDeviation="485" result="effect1_foregroundBlur_0_1"/>
</filter>
<radialGradient id="paint0_radial_0_1" cx="0" cy="0" r="1" gradientUnits="userSpaceOnUse" gradientTransform="translate(873.333 1.94877e-05) rotate(90) scale(960 1657.09)">
<stop stop-color="#7916FF"/>
<stop offset="0.895756" stop-color="#0D051C" stop-opacity="0"/>
</radialGradient>
<clipPath id="clip0_0_1">
<rect x="-522" y="-684" width="1293" height="920" rx="8" fill="white"/>
</clipPath>
<clipPath id="clip1_0_1">
<rect width="18" height="19" fill="white"/>
</clipPath>
</defs>
</svg>
